<svg xmlns="http://www.w3.org/2000/svg" version="1.1" viewBox="-5.0 -10.0 110.0 135.0">
 <path d="m46.336 2.7773c-11.148 0-22.293 4.2461-30.758 12.73-16.93 16.977-16.93 44.66 0 61.633 10.316 10.344 25.145 14.82 39.449 11.895l-2.4844-12.145c-10.23 2.0898-20.805-1.1016-28.195-8.5117-12.199-12.23-12.199-31.898 0-44.129 12.199-12.23 31.773-12.23 43.973 0 12.199 12.23 12.199 31.898 0 44.129l-4.3672 4.3789 24.391 24.457 8.7734-8.7578-16.551-16.59c12.574-17.039 11.906-40.941-3.4766-56.367-8.4648-8.4883-19.609-12.73-30.758-12.73z"/>
</svg>