<svg xmlns="http://www.w3.org/2000/svg" xmlns:xlink="http://www.w3.org/1999/xlink" version="1.1" x="0px" y="0px" viewBox="0 0 48 60" style="enable-background:new 0 0 48 48;" xml:space="preserve"><path d="M27.38,5.35c-8.42,0-15.27,6.85-15.27,15.27c0,3.91,1.47,7.59,4.14,10.43L5.49,41.8c-0.2,0.2-0.2,0.51,0,0.71  c0.1,0.1,0.23,0.15,0.35,0.15S6.1,42.6,6.2,42.5l10.76-10.76c2.84,2.66,6.52,4.14,10.42,4.14c8.42,0,15.27-6.85,15.27-15.27  S35.8,5.35,27.38,5.35z M27.38,34.88c-3.81,0-7.39-1.48-10.09-4.18c-2.69-2.7-4.18-6.28-4.18-10.09c0-7.87,6.4-14.27,14.27-14.27  c7.87,0,14.27,6.4,14.27,14.27S35.25,34.88,27.38,34.88z"/></svg>