<svg xmlns="http://www.w3.org/2000/svg" version="1.1" viewBox="-5.0 -10.0 110.0 135.0">
 <path d="m95.312 9.375v12.5c0 2.5898-2.0977 4.6875-4.6875 4.6875h-81.25c-2.5898 0-4.6875-2.0977-4.6875-4.6875v-12.5c0-2.5898 2.0977-4.6875 4.6875-4.6875h81.25c2.5898 0 4.6875 2.0977 4.6875 4.6875zm-53.125 21.875h-32.812c-2.5898 0-4.6875 2.0977-4.6875 4.6875v31.25c0 2.5898 2.0977 4.6875 4.6875 4.6875h32.812c2.5898 0 4.6875-2.0977 4.6875-4.6875v-31.25c0-2.5898-2.0977-4.6875-4.6875-4.6875zm48.438 0h-32.812c-2.5898 0-4.6875 2.0977-4.6875 4.6875v54.688c0 2.5898 2.0977 4.6875 4.6875 4.6875h32.812c2.5898 0 4.6875-2.0977 4.6875-4.6875v-54.688c0-2.5898-2.0977-4.6875-4.6875-4.6875zm-48.438 45.312h-32.812c-2.5898 0-4.6875 2.0977-4.6875 4.6875v9.375c0 2.5898 2.0977 4.6875 4.6875 4.6875h32.812c2.5898 0 4.6875-2.0977 4.6875-4.6875v-9.375c0-2.5898-2.0977-4.6875-4.6875-4.6875z"/>
</svg>