<svg xmlns="http://www.w3.org/2000/svg" version="1.1" viewBox="-5.0 -10.0 110.0 135.0">
 <path d="m8.5273 2.9414c-2.8516 0-5.1875 2.3398-5.1875 5.1914v45.16c0 2.8516 2.3359 5.1992 5.1875 5.1992h33.445c2.8516 0 5.1914-2.3477 5.1914-5.1992v-45.16c0-2.8516-2.3398-5.1914-5.1914-5.1914zm49.5 0c-2.8516 0-5.1875 2.3398-5.1875 5.1914v23.32c0 2.8516 2.3359 5.1875 5.1875 5.1875h33.445c2.8516 0 5.1875-2.3359 5.1875-5.1875v-23.32c0-2.8516-2.3359-5.1914-5.1875-5.1914zm-49.5 2.9453h33.445c1.2734 0 2.25 0.97266 2.25 2.2461v45.16c0 1.2734-0.97656 2.2578-2.25 2.2578h-33.445c-1.2734 0-2.2461-0.98438-2.2461-2.2578v-45.16c0-1.2734 0.97266-2.2461 2.2461-2.2461zm49.5 0h33.445c1.2734 0 2.2461 0.97266 2.2461 2.2461v23.32c0 1.2734-0.97266 2.2461-2.2461 2.2461h-33.445c-1.2734 0-2.2461-0.97266-2.2461-2.2461v-23.32c0-1.2734 0.97266-2.2461 2.2461-2.2461zm0 35.637c-2.8516 0-5.1875 2.3398-5.1875 5.1914v45.156c0 2.8516 2.3359 5.1914 5.1875 5.1914h33.445c2.8516 0 5.1875-2.3398 5.1875-5.1914v-45.16c0-2.8516-2.3359-5.1914-5.1875-5.1914zm0 2.9414h33.445c1.2734 0 2.2461 0.97656 2.2461 2.25v45.156c0 1.2734-0.97266 2.25-2.2461 2.25h-33.445c-1.2734 0-2.2461-0.97656-2.2461-2.25v-45.16c0-1.2734 0.97266-2.25 2.2461-2.25zm-49.5 18.91c-2.8516 0-5.1875 2.3398-5.1875 5.1914v23.305c0 2.8516 2.3359 5.1914 5.1875 5.1914h33.445c2.8516 0 5.1914-2.3398 5.1914-5.1914v-23.305c0-2.8516-2.3398-5.1914-5.1914-5.1914zm0 2.9414h33.445c1.2734 0 2.25 0.97656 2.25 2.25v23.305c0 1.2734-0.97656 2.25-2.25 2.25h-33.445c-1.2734 0-2.2461-0.97656-2.2461-2.25v-23.305c0-1.2734 0.97266-2.25 2.2461-2.25z"/>
</svg>