<svg xmlns="http://www.w3.org/2000/svg" version="1.1" viewBox="-5.0 -10.0 110.0 135.0">
 <path d="m40.102 26.691c-0.35937-0.96875-2.7188-1.3086-3.6406-1.4805-1.1211-0.19922-2.2383-0.16016-3.3594-0.14063l2.1484-2.6797c-3.8008 1-7.4102 1.5898-11.301 0.53125l2.1484-2.6797c-3.8086 1.4102-7.1992 1.9688-11.301 1.6094-0.76172-0.67969 2.6992-3.0703 3.2695-3.4492 7.8789-5.2109 18.75-4.8789 25.809 1.5508 1.1484 1.0508 1.6211 2.8594 3.1992 3.5195 0-13.352 13.66-20.898 25.84-17.738 0.51172 0.67969-8.1016 5.1992-9.6914 4.3008l2.1484 1.0781c1.3398 1.5-7.8516 5.5781-9.1484 5.3789l2.6797 1.3398-4.8398 4.5703c1.8594-0.55859 3.3516-1.8711 5.2305-2.5586 9.7695-3.5781 20.629 0.26953 25.98 9.0195-1.5781-0.30859-3.3008-0.37891-4.8594-0.78125-0.82031-0.21094-6.6289-2.7695-6.4414-2.1719l1.6094 2.4219c-3.9805 0.30859-7.8203-0.87891-11.301-2.6797l1.0703 2.6914h-9.1484l5.6797 1.5898c10.031 3.3984 16.328 13.738 14.512 24.23-2.8281-2.8906-5.1797-6.2617-6.1992-10.211l-0.80078 3.7617c-2.25-2.9609-5.4102-5.2891-6.1992-9.1406l-1.3281 2.1484c-0.64063-1.1602-8.8281-7.6094-9.4219-6.9883 1.9492 6.4219 4.3281 12.738 5.6719 19.34 2.8086 13.891 2.6992 28.059 0.25 41.969h-11.301c5.7812-19.891 7.1094-40.91 0.53125-60.781-1.0586-0.82031-5.9609 10.262-5.3789 11.828l-2.1406-2.1484c0.16016 3.6797-0.019531 7.2305-1.0898 10.762l-2.1406-2.1484c0.69141 4.0117 0.21875 7.8008-0.011718 11.828-8.1406-9.1016-7.1602-22.719 2.1602-30.648-0.69922-0.57031-6.4297 2.8516-7.2695 3.7617l-0.53125-2.6797c-1.6406 1.9883-5.1094 6.2188-7.5508 6.9805-1.8008 0.55859 0.37109-2.2188-0.51953-2.6797-2.5 3.2109-4.6602 6.0508-8.3398 8.0703 0.57812-6.9102 4.5781-14.09 10.602-17.641 1.2383-0.73047 5.7383-2.8008 6.8906-2.8008h7.8008z"/>
</svg>