<svg xmlns="http://www.w3.org/2000/svg" version="1.1" viewBox="-5.0 -10.0 110.0 135.0">
 <path d="m58.398 95.75h-11.301c-0.23828 0-0.46094-0.10938-0.60156-0.30078-0.14062-0.19141-0.19141-0.42969-0.12109-0.66016 6.2617-21.531 6.5391-41.52 0.83984-59.41-1.5 2.0391-4.5312 9.2305-4.2617 10.43 0.12109 0.32812 0 0.69141-0.30078 0.87891-0.30078 0.19141-0.69141 0.14062-0.94141-0.10938l-0.80859-0.82031c0.03125 3.5391-0.35156 6.4102-1.1719 9.1094-0.078125 0.25-0.28125 0.44922-0.53906 0.51172-0.26172 0.058594-0.53125-0.011718-0.71094-0.19922l-0.58984-0.58984c0.21094 2.5781 0.039063 5.0703-0.14062 7.6719-0.050781 0.69922-0.10156 1.4102-0.14062 2.1211-0.019531 0.30078-0.21875 0.55859-0.5 0.66016-0.28906 0.10156-0.60156 0.019531-0.80859-0.21094-4.0508-4.5391-6.0703-10.309-5.6602-16.262 0.32812-4.8711 2.25-9.4219 5.4805-13.09-1.5898 0.85156-3.3594 1.9609-3.8086 2.4609-0.19141 0.21094-0.48047 0.28906-0.76172 0.21094-0.26953-0.078125-0.48047-0.30078-0.53125-0.57812l-0.23047-1.1406c-1.9297 2.2891-4.6797 5.3086-6.8906 6.0117-0.60938 0.19141-1.0781 0.12891-1.4102-0.19141-0.21875-0.21875-0.30078-0.48047-0.30859-0.76953-1.9492 2.4219-4 4.6406-7.0195 6.2891-0.23828 0.12891-0.53906 0.12109-0.76953-0.03125-0.23047-0.14844-0.35938-0.42188-0.33984-0.69141 0.62891-7.5117 4.9297-14.66 10.961-18.23 1.0195-0.60156 5.8008-2.8984 7.2695-2.8984h3.9688c-0.91016-0.16016-1.8281-0.14062-2.8008-0.12109h-0.35156c-0.28125 0.011719-0.55859-0.14844-0.67969-0.42188-0.12891-0.26172-0.089844-0.57031 0.089843-0.80078l0.76953-0.96094c-2.9883 0.64062-6.1719 0.92187-9.5391 0-0.23828-0.070313-0.44141-0.25-0.51953-0.48828-0.078125-0.23828-0.03125-0.5 0.12891-0.69922l0.57031-0.69922c-3.0898 0.87891-5.9492 1.1289-9.1914 0.85156-0.16016-0.011719-0.30859-0.078125-0.42969-0.19141-0.26172-0.23047-0.37891-0.53906-0.35938-0.89062 0.078125-1.1719 2.3594-2.8516 3.7188-3.7383 8.3789-5.5391 19.621-4.8594 26.73 1.6211 0.51172 0.46875 0.89062 1.0391 1.25 1.5898 0.23828 0.37109 0.48047 0.73047 0.75 1.0312 0.39062-5.25 2.8906-9.8984 7.1484-13.191 5.3203-4.1211 12.82-5.5781 19.578-3.8281 0.16016 0.039063 0.30859 0.14062 0.41016 0.28125 0.10156 0.14062 0.39844 0.64062-0.16016 1.2812-0.71875 0.80859-4.5781 3.0586-7.5312 3.9492 0.039063 0.03125 0.078125 0.058594 0.10938 0.10156 0.37891 0.42969 0.42969 1.0117 0.12109 1.5703-0.78906 1.4492-4.8906 3.5781-7.6484 4.5508l0.83984 0.42188c0.21875 0.10938 0.37109 0.32031 0.41016 0.55859 0.039063 0.23828-0.050781 0.48828-0.23047 0.66016l-1.1289 1.0703c0.23828-0.10938 0.48828-0.21875 0.75-0.30859 10.031-3.6719 21.328 0.26172 26.879 9.3281 0.16016 0.25 0.14844 0.57812-0.019532 0.82031-0.17187 0.23828-0.46094 0.37109-0.76172 0.30859-0.64062-0.12891-1.3086-0.21094-2.0117-0.30078-0.96094-0.12109-1.9492-0.25-2.8906-0.48828-0.28906-0.078124-0.94141-0.32812-2.0508-0.76953-0.67969-0.26953-1.6914-0.67188-2.5391-0.98047l0.57031 0.85938c0.14844 0.21875 0.17188 0.5 0.050781 0.73828s-0.35156 0.39844-0.62109 0.42188c-3.1484 0.25-6.4883-0.39844-9.9492-1.9297l0.35937 0.91016c0.089844 0.23047 0.058594 0.48828-0.078124 0.69922-0.14063 0.21094-0.37109 0.32812-0.62109 0.32812h-3.6797l0.41016 0.10938c10.461 3.5391 16.91 14.32 15.039 25.078-0.050781 0.28125-0.25 0.5-0.51953 0.58984-0.26953 0.089844-0.55859 0-0.76172-0.19141-2.5391-2.6016-4.3594-5.2109-5.5-7.9102l-0.23047 1.0898c-0.058594 0.28906-0.28125 0.51172-0.57031 0.57812-0.28125 0.058594-0.57812-0.039062-0.76172-0.28125-0.62109-0.82031-1.3281-1.6094-2.0195-2.3789-1.4609-1.6211-2.9609-3.2891-3.8203-5.4219l-0.46094 0.73828c-0.14062 0.23047-0.39062 0.37109-0.66016 0.35156-0.26953 0-0.51172-0.14844-0.64063-0.39062-0.46094-0.78906-5.2617-4.6602-7.5898-6.1016 0.42969 1.3789 0.87891 2.75 1.3203 4.1211 1.4492 4.4805 2.9609 9.1094 3.9102 13.828 2.7305 13.5 2.8203 27.711 0.25 42.25-0.058594 0.35938-0.37109 0.62109-0.73828 0.62109zm-10.309-1.5h9.6797c2.4219-14.141 2.3008-27.949-0.35938-41.078-0.94141-4.6406-2.4297-9.2305-3.8711-13.66-0.60937-1.8711-1.2109-3.7305-1.7812-5.6094-0.078124-0.26172-0.011718-0.53906 0.17188-0.73828 0.12109-0.12109 0.39062-0.32031 0.82812-0.26172 1.4492 0.19141 6.9414 4.4609 9.0312 6.5195l0.80859-1.3008c0.16016-0.26172 0.46875-0.39844 0.76953-0.33984 0.30078 0.050781 0.53906 0.28906 0.60156 0.58984 0.53125 2.5508 2.1914 4.3984 3.9609 6.3594 0.35937 0.39844 0.73828 0.82031 1.1016 1.2383l0.46875-2.2305c0.070312-0.33984 0.37109-0.58984 0.71875-0.58984 0.35156 0 0.66016 0.23047 0.73828 0.55859 0.76953 3.0117 2.3906 5.8711 4.9414 8.7305 0.91016-9.5117-4.9805-18.73-14.211-21.852l-5.6406-1.5703c-0.35938-0.10156-0.58984-0.44922-0.53906-0.82031 0.050782-0.37109 0.37109-0.64844 0.73828-0.64844h8.0391l-0.66016-1.6602c-0.12109-0.28906-0.039062-0.62109 0.19141-0.82812 0.23047-0.21094 0.57031-0.25 0.85156-0.10938 3.3398 1.7383 6.5586 2.6211 9.5781 2.6484l-0.87109-1.3008c-0.039062-0.058594-0.070312-0.12109-0.089844-0.19141-0.089844-0.28125 0-0.64062 0.21094-0.83984 0.48047-0.44141 0.91016-0.39062 5.25 1.3398 0.80859 0.32031 1.6602 0.66016 1.8711 0.71094 0.85156 0.21875 1.8008 0.33984 2.7109 0.46094 0.12891 0.019531 0.26172 0.03125 0.39062 0.050781-5.4414-7.4688-15.328-10.539-24.148-7.3086-0.82031 0.30078-1.5586 0.73047-2.3516 1.1797-0.91016 0.53125-1.8516 1.0703-2.9297 1.3906-0.32812 0.10156-0.69141-0.039063-0.85937-0.33984-0.17188-0.30078-0.12109-0.67969 0.12891-0.92188l4.0586-3.8281-1.7188-0.85938c-0.32813-0.16016-0.48828-0.55078-0.37891-0.89844 0.10938-0.35156 0.46875-0.57031 0.82812-0.51172h0.050782c1.3789 0 7.4297-2.8984 8.2812-4.1484l-1.7383-0.87109s-0.058594-0.03125-0.078125-0.039063c-0.35156-0.19922-0.48047-0.64844-0.28906-1.0117 0.19141-0.35938 0.62891-0.5 1-0.32031l0.050781 0.019531c0.96094 0.35938 5.9219-1.8516 7.8984-3.2109-5.9883-1.1797-12.422 0.25-17.059 3.8398-4.2695 3.3086-6.6211 8.0781-6.6211 13.461 0 0.25-0.12109 0.48047-0.32812 0.62109-0.21094 0.14063-0.46875 0.17188-0.69922 0.070313-1.1797-0.48828-1.8281-1.4805-2.4102-2.3516-0.32812-0.5-0.64062-0.96875-1.0117-1.3086-6.6094-6.0195-17.078-6.6406-24.891-1.4805-1.0898 0.71875-2.1484 1.5703-2.6914 2.1406 3.4492 0.19141 6.5-0.30859 10.039-1.6289 0.30859-0.12109 0.67188-0.011719 0.87109 0.26172 0.19922 0.26953 0.19141 0.64844-0.019531 0.91016l-1.4102 1.75c3.2109 0.62109 6.2695 0.12891 9.7812-0.78906 0.30859-0.078125 0.64062 0.050781 0.82031 0.32031 0.17969 0.26953 0.16016 0.62891-0.039062 0.87891l-1.1602 1.4492c0.62891 0 1.2695 0.050781 1.9219 0.17188l0.23047 0.039062c1.6914 0.30078 3.5312 0.71094 3.9688 1.9102 0.078125 0.23047 0.050782 0.48828-0.089844 0.69141-0.14062 0.19922-0.37109 0.32031-0.62109 0.32031h-7.8008c-0.83984 0-5.0781 1.8516-6.5117 2.6914-5.1406 3.0391-9.0508 9.1484-10.051 15.559 2.6992-1.8086 4.5391-4.1602 6.6211-6.8281l0.19922-0.26172c0.21875-0.28906 0.60938-0.37109 0.92969-0.21094 0.96094 0.48828 0.60156 1.6289 0.37109 2.3789 0 0.03125-0.019531 0.070313-0.03125 0.10156 2.2109-1.0117 5.3906-4.8594 6.7891-6.5586 0.17969-0.21875 0.48828-0.33984 0.78125-0.26953 0.28125 0.070312 0.51172 0.28125 0.57031 0.55859l0.30078 1.5c2-1.4102 6.1406-3.8984 7.2383-3.0117 0.17188 0.14062 0.28125 0.35156 0.28125 0.57031s-0.089844 0.44141-0.26172 0.57812c-4.3711 3.7188-6.9883 8.8516-7.3711 14.43-0.33984 4.9297 1.1094 9.7305 4.1016 13.711 0-0.078125 0.011719-0.16016 0.019531-0.23047 0.21875-3.25 0.44141-6.3086-0.12109-9.5312-0.058594-0.32031 0.10156-0.64062 0.39062-0.78906 0.28906-0.14844 0.64062-0.10156 0.87891 0.14062l1.2305 1.2305c0.64844-2.6719 0.87891-5.5898 0.71875-9.2812-0.011718-0.30859 0.17188-0.58984 0.44922-0.71875 0.28125-0.12109 0.60938-0.058594 0.82812 0.16016l1.0312 1.0312c0.78906-3.4297 3.7695-9.7188 5.1211-10.719 0.66016-0.48047 1.1719-0.17188 1.3008-0.058594 0.12109 0.089844 0.21094 0.21875 0.25 0.35938 6.0117 18.16 5.9297 38.43-0.25 60.27z"/>
</svg>