<svg xmlns="http://www.w3.org/2000/svg" xmlns:xlink="http://www.w3.org/1999/xlink" version="1.1" x="0px" y="0px" viewBox="0 0 48 60" style="enable-background:new 0 0 48 48;" xml:space="preserve"><path d="M29.07,21.81c2.14-1.59,3.43-4.13,3.43-6.81c0-4.69-3.81-8.5-8.5-8.5s-8.5,3.81-8.5,8.5c0,2.68,1.29,5.22,3.43,6.81  C15.6,23.65,13.5,27.17,13.5,31v10c0,0.28,0.22,0.5,0.5,0.5h20c0.28,0,0.5-0.22,0.5-0.5V31C34.5,27.17,32.4,23.65,29.07,21.81z   M33.5,40.5h-19V31c0-3.74,2.21-7.14,5.63-8.67c0.17-0.08,0.28-0.24,0.29-0.43c0.01-0.19-0.08-0.36-0.24-0.46  c-2.3-1.37-3.68-3.78-3.68-6.45c0-4.14,3.36-7.5,7.5-7.5s7.5,3.36,7.5,7.5c0,2.67-1.38,5.08-3.68,6.45  c-0.16,0.1-0.25,0.27-0.24,0.46c0.01,0.19,0.12,0.35,0.29,0.43c3.42,1.53,5.63,4.93,5.63,8.67V40.5z"/></svg>