<svg xmlns="http://www.w3.org/2000/svg" xmlns:xlink="http://www.w3.org/1999/xlink" version="1.1" x="0px" y="0px" viewBox="0 0 48 60" style="enable-background:new 0 0 48 48;" xml:space="preserve"><g><path d="M44,41.5H4.5V6c0-0.28-0.22-0.5-0.5-0.5S3.5,5.72,3.5,6v36c0,0.28,0.22,0.5,0.5,0.5h40c0.28,0,0.5-0.22,0.5-0.5   S44.28,41.5,44,41.5z"/><path d="M8,38.5h8c0.28,0,0.5-0.22,0.5-0.5V26c0-0.28-0.22-0.5-0.5-0.5H8c-0.28,0-0.5,0.22-0.5,0.5v12C7.5,38.28,7.72,38.5,8,38.5z    M8.5,26.5h7v11h-7V26.5z"/><path d="M20,38.36h8c0.28,0,0.5-0.22,0.5-0.5V18c0-0.28-0.22-0.5-0.5-0.5h-8c-0.28,0-0.5,0.22-0.5,0.5v19.86   C19.5,38.13,19.72,38.36,20,38.36z M20.5,18.5h7v18.86h-7V18.5z"/><path d="M32,38.36h8c0.28,0,0.5-0.22,0.5-0.5V10c0-0.28-0.22-0.5-0.5-0.5h-8c-0.28,0-0.5,0.22-0.5,0.5v27.86   C31.5,38.13,31.72,38.36,32,38.36z M32.5,10.5h7v26.86h-7V10.5z"/></g></svg>