<svg xmlns="http://www.w3.org/2000/svg" version="1.1" viewBox="-5.0 -10.0 110.0 135.0">
 <path d="m50.004 4.2852c-18.77 0-34.023 15.188-34.023 33.895 0 12.051 8.3555 26.141 16.57 37.418 8.2148 11.277 16.43 19.688 16.43 19.688v0.003906c0.26953 0.27344 0.63672 0.42578 1.0195 0.42578s0.75-0.15234 1.0195-0.42578c0 0 8.2148-8.4102 16.43-19.688 8.2148-11.277 16.57-25.367 16.57-37.418 0-18.707-15.242-33.895-34.012-33.895zm0 2.8555c17.23 0 31.156 13.879 31.156 31.039 0 10.684-7.9414 24.648-16.02 35.742-7.5703 10.395-14.223 17.191-15.145 18.148-0.92578-0.96094-7.5625-7.7578-15.133-18.148-8.0781-11.094-16.02-25.055-16.02-35.742 0-17.156 13.934-31.035 31.164-31.039zm0 13.32c-8.3672 0-15.188 6.7891-15.188 15.137 0 8.3438 6.8203 15.137 15.188 15.137 8.3672 0 15.176-6.7891 15.176-15.137 0-8.3438-6.8086-15.137-15.176-15.137zm0 2.8594c6.8281 0 12.32 5.4805 12.32 12.273s-5.4922 12.273-12.32 12.273-12.328-5.4805-12.328-12.273 5.5-12.273 12.328-12.273z"/>
</svg>