<svg xmlns="http://www.w3.org/2000/svg" xmlns:xlink="http://www.w3.org/1999/xlink" version="1.1" x="0px" y="0px" viewBox="0 0 48 60" style="enable-background:new 0 0 48 48;" xml:space="preserve"><path d="M6,8.5h36c0.28,0,0.5-0.22,0.5-0.5S42.28,7.5,42,7.5H6C5.72,7.5,5.5,7.72,5.5,8S5.72,8.5,6,8.5z"/><path d="M6,16.5h36c0.28,0,0.5-0.22,0.5-0.5s-0.22-0.5-0.5-0.5H6c-0.28,0-0.5,0.22-0.5,0.5S5.72,16.5,6,16.5z"/><path d="M6,24.5h36c0.28,0,0.5-0.22,0.5-0.5s-0.22-0.5-0.5-0.5H6c-0.28,0-0.5,0.22-0.5,0.5S5.72,24.5,6,24.5z"/><path d="M6,32.5h36c0.28,0,0.5-0.22,0.5-0.5s-0.22-0.5-0.5-0.5H6c-0.28,0-0.5,0.22-0.5,0.5S5.72,32.5,6,32.5z"/><path d="M6,40.5h36c0.28,0,0.5-0.22,0.5-0.5s-0.22-0.5-0.5-0.5H6c-0.28,0-0.5,0.22-0.5,0.5S5.72,40.5,6,40.5z"/></svg>