<svg xmlns="http://www.w3.org/2000/svg" version="1.1" viewBox="-5.0 -10.0 110.0 135.0">
 <path d="m89 22.078h-60.121c-0.55078 0-1 0.44922-1 1v9.5781c0 0.55078 0.44922 1 1 1l60.121 0.003906c0.55078 0 1-0.44922 1-1v-9.5781c0-0.55078-0.44922-1.0039-1-1.0039z"/>
 <path d="m89 44.211h-60.121c-0.55078 0-1 0.44922-1 1v9.5781c0 0.55078 0.44922 1 1 1h60.121c0.55078 0 1-0.44922 1-1v-9.5781c0-0.55078-0.44922-1-1-1z"/>
 <path d="m89 66.34h-60.121c-0.55078 0-1 0.44922-1 1v9.5781c0 0.55078 0.44922 1 1 1l60.121 0.003906c0.55078 0 1-0.44922 1-1v-9.5781c0-0.55469-0.44922-1.0039-1-1.0039z"/>
 <path d="m20.289 22.078h-9.2891c-0.55078 0-1 0.44922-1 1v9.5781c0 0.55078 0.44922 1 1 1h9.2891c0.55859 0 1-0.44922 1-1v-9.5781c0-0.54688-0.4375-1-1-1z"/>
 <path d="m20.289 44.211h-9.2891c-0.55078 0-1 0.44922-1 1v9.5781c0 0.55078 0.44922 1 1 1h9.2891c0.55859 0 1-0.44922 1-1v-9.5781c0-0.55078-0.4375-1-1-1z"/>
 <path d="m20.289 66.34h-9.2891c-0.55078 0-1 0.44922-1 1v9.5781c0 0.55078 0.44922 1 1 1h9.2891c0.55859 0 1-0.44922 1-1v-9.5781c0-0.55078-0.4375-1-1-1z"/>
</svg>