<svg xmlns="http://www.w3.org/2000/svg" version="1.1" viewBox="-5.0 -10.0 110.0 135.0">
 <g>
  <path d="m37.18 38.176c0 5.1836 3.125 9.8594 7.9141 11.844s10.305 0.88672 13.969-2.7773c3.668-3.668 4.7656-9.1797 2.7812-13.969-1.9844-4.793-6.6602-7.9141-11.844-7.9141-7.0742 0.007813-12.812 5.7422-12.82 12.816z"/>
  <path d="m64.766 38.176c0.003906 3.3242-1.125 6.5547-3.1992 9.1523 3.8828 0.72656 7.8828-0.39844 10.824-3.0352l0.011719-0.007813h-0.003906c3.9727-3.5391 5.3438-9.1641 3.4492-14.137-1.8984-4.9727-6.668-8.2539-11.988-8.25-2.8789-0.003907-5.6719 0.96875-7.9219 2.7656 2.625 1.1523 4.8555 3.0469 6.4219 5.4453s2.4023 5.1992 2.4062 8.0664z"/>
  <path d="m23.312 34.719c-0.011719 3.8086 1.6719 7.4219 4.5977 9.8594 2.9219 2.4375 6.7812 3.4453 10.523 2.75-2.8477-3.5781-3.8711-8.2773-2.7656-12.715 1.1016-4.4414 4.2031-8.1133 8.3906-9.9492-2.2461-1.793-5.0391-2.7695-7.918-2.7656-7.0781 0.007812-12.816 5.7422-12.828 12.82z"/>
  <path d="m76.121 73.051c-1.2227-10.652-6.7383-18.316-16.82-23.414-2.6289 2.1406-5.9102 3.3086-9.3008 3.3086s-6.6719-1.168-9.3008-3.3086c-10.082 5.0977-15.598 12.762-16.82 23.414-0.12109 1.0742 0.5625 2.0781 1.6094 2.3555 6.9531 1.8125 15.562 2.3086 24.512 2.6953 8.9492-0.38281 17.559-0.87891 24.512-2.6875v-0.003906c1.0469-0.28125 1.7305-1.2852 1.6094-2.3594z"/>
  <path d="m11.617 71.949c3.3945 0.84375 6.8477 1.4336 10.328 1.7617-0.03125-0.29297-0.03125-0.58984 0-0.88281 1.168-10.16 6.2344-18 15.059-23.363-0.28516 0.015625-0.57031 0.03125-0.85938 0.03125v-0.003906c-3.3906 0.003906-6.6758-1.168-9.3008-3.3125-10.09 5.1016-15.602 12.762-16.824 23.414-0.125 1.0742 0.55469 2.0742 1.5977 2.3555z"/>
  <path d="m88.379 71.949c1.0469-0.27734 1.7305-1.2812 1.6055-2.3555-1.2188-10.652-6.7344-18.312-16.824-23.414-2.625 2.1445-5.9102 3.3164-9.3008 3.3125-0.28906 0-0.57422-0.015626-0.86328-0.03125 8.8242 5.3672 13.891 13.199 15.059 23.363l0.003906 0.003906c0.03125 0.29297 0.03125 0.58984 0 0.88281 3.4766-0.32813 6.9297-0.91797 10.32-1.7617z"/>
 </g>
</svg>