<svg xmlns="http://www.w3.org/2000/svg" xmlns:xlink="http://www.w3.org/1999/xlink" version="1.1" x="0px" y="0px" viewBox="0 0 48 60" style="enable-background:new 0 0 48 48;" xml:space="preserve"><path d="M35.07,23.31c2.14-1.59,3.43-4.13,3.43-6.81c0-4.69-3.81-8.5-8.5-8.5c-1.65,0-3.22,0.49-4.59,1.39C23.92,6.71,21.08,5,18,5  c-4.69,0-8.5,3.81-8.5,8.5c0,2.68,1.29,5.22,3.43,6.81C9.6,22.15,7.5,25.67,7.5,29.5v10C7.5,39.78,7.72,40,8,40h11.5v2.5  c0,0.28,0.22,0.5,0.5,0.5h20c0.28,0,0.5-0.22,0.5-0.5v-10C40.5,28.67,38.4,25.15,35.07,23.31z M19.5,32.5V39h-11v-9.5  c0-3.74,2.21-7.14,5.63-8.67c0.17-0.08,0.28-0.24,0.29-0.43c0.01-0.19-0.08-0.36-0.24-0.46c-2.3-1.37-3.68-3.78-3.68-6.45  C10.5,9.36,13.86,6,18,6c2.75,0,5.3,1.54,6.6,3.95c-1.97,1.62-3.1,3.99-3.1,6.55c0,1.24,0.28,2.46,0.82,3.61  c0.23,0.49,0.5,0.95,0.81,1.37c0.51,0.71,1.12,1.32,1.8,1.83C21.61,25.15,19.5,28.67,19.5,32.5z M39.5,42h-19v-2.5v-7  c0-3.73,2.2-7.13,5.61-8.66c0.05-0.02,0.09-0.07,0.13-0.11c0.06-0.06,0.09-0.13,0.12-0.21c0-0.01,0.01-0.02,0.02-0.04  c0,0,0,0,0-0.01c0-0.02,0.02-0.04,0.02-0.06c0.02-0.13-0.04-0.26-0.12-0.36c-0.01-0.01-0.01-0.02-0.01-0.03c0,0-0.01-0.01-0.01-0.01  C26.24,23.01,26.24,23,26.23,23c-0.66-0.84-1.45-1.57-2.34-2.17c-0.25-0.35-0.47-0.73-0.66-1.14c-0.48-1.02-0.73-2.09-0.73-3.18  c0-2.38,1.1-4.58,3.03-6.01c0,0,0,0,0,0C26.84,9.52,28.38,9,30,9c4.14,0,7.5,3.36,7.5,7.5c0,2.67-1.38,5.08-3.68,6.45  c-0.16,0.1-0.25,0.27-0.24,0.46c0.01,0.19,0.12,0.35,0.29,0.43c3.42,1.53,5.63,4.93,5.63,8.67V42z"/></svg>