<svg xmlns="http://www.w3.org/2000/svg" xmlns:xlink="http://www.w3.org/1999/xlink" version="1.1" x="0px" y="0px" viewBox="0 0 48 60" style="enable-background:new 0 0 48 48;" xml:space="preserve"><path d="M34,45.5v-3v-3v-31C34,8.22,33.78,8,33.5,8h-19h-3h-3C8.22,8,8,8.22,8,8.5v37C8,45.78,8.22,46,8.5,46h25  C33.78,46,34,45.78,34,45.5z M33,39.5v3V45H9V9h2.5h3H33V39.5z"/><path d="M36,42.5c0,0.28,0.22,0.5,0.5,0.5s0.5-0.22,0.5-0.5v-3v-34C37,5.22,36.78,5,36.5,5h-22h-3C11.22,5,11,5.22,11,5.5  S11.22,6,11.5,6h3H36v33.5V42.5z"/><path d="M39.5,2h-25C14.22,2,14,2.22,14,2.5S14.22,3,14.5,3H39v36.5c0,0.28,0.22,0.5,0.5,0.5s0.5-0.22,0.5-0.5v-37  C40,2.22,39.78,2,39.5,2z"/></svg>