<?xml version="1.0" encoding="UTF-8"?>
<svg id="Layer_1" xmlns="http://www.w3.org/2000/svg" version="1.1" viewBox="0 0 566.93 283.47">
  <!-- Generator: Adobe Illustrator 29.8.2, SVG Export Plug-In . SVG Version: 2.1.1 Build 3)  -->
  <defs>
    <style>
      .st0 {
        fill: #231f20;
      }

      .st1 {
        fill: #1c9fda;
      }
    </style>
  </defs>
  <polygon class="st0" points="245.05 130.74 245.05 119.93 220.05 119.93 220.05 30.8 209.23 30.8 209.23 119.93 209.23 130.74 220.05 130.74 245.05 130.74"/>
  <polygon class="st0" points="515.73 30.8 515.73 66.35 479.94 30.8 479.94 130.74 490.75 130.74 490.75 56.04 515.73 80.81 515.73 130.74 526.54 130.74 526.54 30.8 515.73 30.8"/>
  <polygon class="st0" points="458.53 130.74 465.75 130.74 465.75 119.93 458.53 119.93 458.53 41.61 465.75 41.61 465.75 30.8 458.53 30.8 447.72 30.8 440.51 30.8 440.51 41.61 447.72 41.61 447.72 119.93 440.51 119.93 440.51 130.74 447.72 130.74 458.53 130.74"/>
  <path class="st0" d="M289.07,30.8h-13.44l-19.95,99.94h10.8l3.59-17.95h24.56l3.59,17.95h10.81l-19.96-99.94ZM272.22,102.02l10.13-50.74,10.13,50.74h-20.26Z"/>
  <path class="st0" d="M412.02,30.8l-21.15,21.16v-21.16h-10.81v99.94h10.81v-60.9h16.8c3.93,0,8.08,4.16,8.08,8.08v14.95h-.02v37.87h10.81v-37.87h-.02v-14.95c0-9.86-8.98-18.85-18.85-18.85h-9.41l28.28-28.28h-14.51Z"/>
  <path class="st0" d="M364.37,83.41v-33.74c0-9.86-8.98-18.85-18.84-18.85h-15.35v-.02h-10.81v99.95h10.81v-28.49h12.01l11.23,28.49h12.66l-12.1-30.72c6.01-3.27,10.4-9.73,10.4-16.62M353.61,64.11v19.3c0,3.93-4.15,8.08-8.08,8.08h-15.35v-49.9h15.35c3.93,0,8.08,4.16,8.08,8.08v14.44Z"/>
  <polygon class="st0" points="282.11 141.14 277.52 141.14 277.52 179.1 277.52 183.62 277.52 183.7 292.46 183.7 292.46 179.1 282.11 179.1 282.11 141.14"/>
  <path class="st0" d="M310.36,141.06h-7.93v.08h-3.78v42.48h3.78v.07h7.93c4.12,0,8.01-4.09,8.01-8.42v-7.9s0-17.89,0-17.89c0-4.33-3.89-8.42-8.01-8.42M313.8,175.26c0,1.76-1.86,3.85-3.43,3.85h-7.12v-33.47h7.12c1.57,0,3.43,2.09,3.43,3.84v25.78Z"/>
  <path class="st0" d="M464.88,183.69h2.37c4.12,0,8.01-4.09,8.01-8.42v-7.9s0-17.89,0-17.89c0-4.33-3.89-8.42-8.01-8.42h-4.07c-4.11,0-8.01,4.1-8.01,8.42v25.78c0,4.33,3.89,8.42,8.01,8.42h1.7ZM459.75,175.26v-25.78c0-1.76,1.86-3.84,3.43-3.84h4.07c1.57,0,3.43,2.09,3.43,3.84v25.78c0,1.76-1.86,3.85-3.43,3.85h-4.07c-1.57,0-3.43-2.09-3.43-3.85"/>
  <path class="st0" d="M500.89,141.14h-4.58v34.12c0,1.76-1.86,3.84-3.43,3.84h-4.07c-1.57,0-3.43-2.09-3.43-3.84v-34.12h-4.57v34.12c0,4.33,3.89,8.42,8,8.42h4.07c4.12,0,8.01-4.09,8.01-8.42v-34.12Z"/>
  <path class="st0" d="M448.63,162.76v-7.63s0-5.65,0-5.65c0-4.33-3.9-8.42-8.01-8.42h-7.01v.08h-3.78v42.48h4.6v-12.44h4.59l5.03,12.44h5.53l-5.43-13.43c2.57-1.47,4.5-4.39,4.5-7.43M444.05,162.76c0,1.76-1.86,3.84-3.43,3.84h-6.2v-20.96h6.2c1.57,0,3.43,2.08,3.43,3.84v13.28Z"/>
  <path class="st0" d="M518.52,141.06h-7.94v.08h-3.78v42.48h4.6v-12.44h7.12c4.11,0,8-4.1,8-8.42v-13.28c0-4.33-3.89-8.42-8-8.42M521.95,162.76c0,1.76-1.86,3.84-3.43,3.84h-7.12v-20.96h7.12c1.57,0,3.43,2.08,3.43,3.84v13.28Z"/>
  <path class="st0" d="M250.3,141.34v34.38c0,1.67-1.76,3.44-3.43,3.44h-3.58c-1.67,0-3.43-1.77-3.43-3.44v-34.38h-4.58v34.38c0,4.19,3.82,8.01,8.01,8.01h3.58c4.2,0,8.01-3.82,8.01-8.01v-34.38h-4.58Z"/>
  <path class="st0" d="M226.52,155.43c.93-1.18,1.45-2.74,1.45-4.56v-2.73c0-4.24-2.84-7.09-7.08-7.09h-7.47v.08h-3.65v42.48h3.65v.12h7.94c4.19,0,8.01-3.82,8.01-8.01v-14.34c0-2.28-1.14-4.45-2.84-5.96M214.36,145.64h6.53c1.69,0,2.51.82,2.51,2.5v.56h0v.81s0,.8,0,.8h0v.56c0,1.68-.82,2.51-2.51,2.51h-6.53v-7.74ZM224.79,167.53v2.95s0,.03,0,.03v.24h0v4.98c0,1.67-1.77,3.44-3.43,3.44h-6.99v-21.21h6.99c1.67,0,3.43,1.76,3.43,3.43v4.99h0v1.16h0Z"/>
  <polygon class="st0" points="260.73 145.64 263.97 145.64 263.97 179.1 260.73 179.1 260.73 183.7 271.54 183.7 271.54 179.1 268.56 179.1 268.56 145.64 271.54 145.64 271.54 141.05 260.73 141.05 260.73 145.64"/>
  <polygon class="st0" points="355.92 156.18 341.04 141.14 341.04 183.62 345.63 183.62 345.63 152.07 355.92 162.38 355.92 183.62 360.52 183.62 360.52 141.14 355.92 141.14 355.92 156.18"/>
  <polygon class="st0" points="324.02 145.64 327.26 145.64 327.26 179.1 324.02 179.1 324.02 183.7 334.83 183.7 334.83 179.1 331.85 179.1 331.85 145.64 334.83 145.64 334.83 141.05 324.02 141.05 324.02 145.64"/>
  <path class="st0" d="M375.54,165.28v4.59h5.95v6.46c-1.14,1.22-2.89,2.36-5.42,2.36h0s-1.56,0-1.56,0c-1.67,0-3.44-1.76-3.44-3.43v-7.25h0v-5.92s0-5.92,0-5.92h0v-7.25c0-1.67,1.77-3.44,3.44-3.44h6.98v-4.57h-6.98c-4.2,0-8.01,3.81-8.01,8.01v26.35c0,4.19,3.81,8.01,8.01,8.01h2.35v-.03c1.65-.11,3.21-.53,4.63-1.25v1.63h4.59v-18.34h-10.53Z"/>
  <path class="st0" d="M413.14,165.28v4.59h5.95v6.46c-1.15,1.22-2.88,2.36-5.42,2.36h0s-1.56,0-1.56,0c-1.67,0-3.44-1.76-3.44-3.43v-7.25h0v-5.92s0-5.92,0-5.92h0v-7.25c0-1.67,1.77-3.44,3.44-3.44h6.98v-4.57h-6.98c-4.19,0-8.01,3.81-8.01,8.01v26.35c0,4.19,3.82,8.01,8.01,8.01h2.34v-.03c1.66-.11,3.21-.53,4.64-1.25v1.63h4.59v-18.34h-10.54Z"/>
  <path class="st1" d="M208.48,209.81c-.62,10.42-4.01,29.74-19.45,45.76-5.58,5.79-11.13,10.24-16.8,13.66h384.13v-59.42H208.48Z"/>
  <path class="st0" d="M198.01,203.24c0-46.81-37.24-58.51-37.24-58.51,29.08-19.62,25.65-49.53,25.65-49.53,0-64.3-74.04-58.12-74.04-58.12h-25.29v62.41h20.92c19.47,0,17.89,11.28,17.89,11.28,0,14.89-33.33,13.87-33.33,13.87h-5.48v62.22h33.17c18.76,0,17.38,11.66,17.38,11.66,0,12.61-18.91,11.39-19.19,11.39h-2.3v60.1c29.49-.12,47.01-2.74,65.3-21.73,18.79-19.5,16.55-45.03,16.55-45.03"/>
  <path class="st1" d="M105.63,209.9h-7.63s-14.85,1.07-19.07-7.64c0,0-2.37-3.07-2.37-15.92V14.22H15.26v183.77s-4.57,71.55,73.91,71.55h16.46v-59.65Z"/>
</svg>