<?xml version="1.0" encoding="UTF-8"?>
<svg id="Layer_1" xmlns="http://www.w3.org/2000/svg" version="1.1" viewBox="0 0 850.4 850.4">
  <!-- Generator: Adobe Illustrator 29.1.0, SVG Export Plug-In . SVG Version: 2.1.0 Build 142)  -->
  <defs>
    <style>
      .st0 {
        fill: #231f20;
      }

      .st1 {
        fill: #1c9fda;
      }
    </style>
  </defs>
  <path class="st0" d="M605.9,542.7c0-89.6-71.3-112-71.3-112,55.7-37.6,49.1-94.8,49.1-94.8,0-123.1-141.7-111.2-141.7-111.2h-48.4v119.5h40c37.3,0,34.2,21.6,34.2,21.6,0,28.5-63.8,26.5-63.8,26.5h-10.5v119.1h63.5c35.9,0,33.3,22.3,33.3,22.3,0,24.1-36.2,21.8-36.7,21.8h-4.4v115c56.5-.2,90-5.2,125-41.6,36-37.3,31.7-86.2,31.7-86.2"/>
  <path class="st1" d="M429.1,555.5h-14.6s-28.4,2-36.5-14.6c0,0-4.5-5.9-4.5-30.5V180.9h-117.4v351.8s-8.8,137,141.5,137h31.5v-114.2Z"/>
</svg>