<svg xmlns="http://www.w3.org/2000/svg" viewBox="0 0 200 200" width="200" height="200">
  <rect width="200" height="200" fill="white"/>
  <!-- Letter L (blue) - thick vertical with small bottom-right hook -->
  <g fill="#1c9fda">
    <path d="M 50 30 L 50 170 L 100 170 L 100 140 L 80 140 L 80 30 Z"/>
  </g>
  <!-- Letter B (black) - sharing the L's vertical line -->
  <g fill="#1c1c1c">
    <path d="M 100 30 L 100 170 L 135 170 C 158 170 170 158 170 138 C 170 122 162 112 150 108 C 160 104 168 95 168 80 C 168 60 156 30 130 30 Z M 120 50 L 130 50 C 142 50 148 58 148 70 C 148 82 142 90 128 90 L 120 90 Z M 120 110 L 132 110 C 146 110 152 118 152 132 C 152 144 145 152 130 152 L 120 152 Z" />
  </g>
</svg>
